<svg xmlns="http://www.w3.org/2000/svg" width="117" height="32" fill="none" viewBox="0 0 117 32"><path fill="#1C3041" d="M0.234375 17.3253V12.8253L18.2344 4.89915V10.0767L5.91051 15.0241L6.0767 14.7557V15.3949L5.91051 15.1264L18.2344 20.0739V25.2514L0.234375 17.3253ZM23.7443 28V1.81818H29.2798V13.3622H29.625L39.0469 1.81818H45.6818L35.9659 13.5412L45.7969 28H39.1747L32.0028 17.2358L29.2798 20.5597V28H23.7443ZM70.4638 1.81818V28H65.6825L54.2919 11.5213H54.1001V28H48.5646V1.81818H53.4226L64.7237 18.2841H64.9538V1.81818H70.4638ZM94.6705 0.590907L86.233 31.9375H81.5412L89.9787 0.590907H94.6705ZM116.355 19.7798L98.3555 27.706V22.5284L110.679 17.581L110.513 17.8494V17.2102L110.679 17.4787L98.3555 12.5312V7.35369L116.355 15.2798V19.7798Z"/></svg>